<svg id="グループ_6" data-name="グループ 6" xmlns="http://www.w3.org/2000/svg" width="94" height="34" viewBox="0 0 94 34">
  <g id="グループ_4" data-name="グループ 4" transform="translate(4.073 26.802)">
    <path id="パス_10" data-name="パス 10" d="M88.929,573.3a8.141,8.141,0,0,1-2.187,3.779,7.3,7.3,0,0,1-3.774,1.8l-.069-.413a6.415,6.415,0,0,0,5.42-4.732H83.21l.1-.437Z" transform="translate(-82.9 -572.121)" fill="#0071ce"/>
    <path id="パス_11" data-name="パス 11" d="M209.953,565.988a6.549,6.549,0,0,1-2.408,4.059l-.246-.319a5.885,5.885,0,0,0,2.211-3.71l.437-1.9h.437Zm1.115,3.4a4.236,4.236,0,0,0,3.263-3.037l.373.172a4.863,4.863,0,0,1-4.211,3.41l1.391-6.034h.452Z" transform="translate(-201.188 -563.183)" fill="#0071ce"/>
    <path id="パス_12" data-name="パス 12" d="M396.447,621.3l-.113.482H390.6l.113-.482Z" transform="translate(-375.542 -617.762)" fill="#0071ce"/>
    <path id="パス_13" data-name="パス 13" d="M544.8,575.99a7.269,7.269,0,0,0,5.862-5.272l.486.074c-1.184,3.105-3.007,4.948-6.142,5.592Zm.668-2.717a8.286,8.286,0,0,0-.275-2.128l.442-.147a8.579,8.579,0,0,1,.31,2.142Zm2.074-.354a8.541,8.541,0,0,0-.113-2.2l.442-.118a8.619,8.619,0,0,1,.172,2.211Z" transform="translate(-522.196 -569.553)" fill="#0071ce"/>
    <path id="パス_14" data-name="パス 14" d="M701.09,565.254a14.655,14.655,0,0,0-1.125,3.326,9.566,9.566,0,0,0-.364,2.609l-.5.054a14.416,14.416,0,0,1,.4-2.619,16.166,16.166,0,0,1,1.115-3.425Zm1.15,3.145a2.556,2.556,0,0,0-.624,1.066c-.187.8.717.86,1.563.86a14.789,14.789,0,0,0,1.607-.084l-.113.482c-.216.015-.826.059-1.425.059-.909,0-2.339-.059-2.049-1.307a2.988,2.988,0,0,1,.658-1.214Zm3.4-2.55-.1.427h-3.38l.1-.427Z" transform="translate(-668.945 -564.419)" fill="#0071ce"/>
    <path id="パス_15" data-name="パス 15" d="M862.631,563.739a20.666,20.666,0,0,0-1.125,3.474,9.617,9.617,0,0,0-.344,2.476l-.462.074a12.557,12.557,0,0,1,.393-2.624,23.143,23.143,0,0,1,1.076-3.44Zm4.825,1.282-.1.427H865.9l-.462,2.128A3.739,3.739,0,0,1,866.7,568.7l-.408.423a2.885,2.885,0,0,0-.963-1.081l-.079.339a1.463,1.463,0,0,1-1.68,1.351c-1.174,0-1.371-.688-1.253-1.2a1.836,1.836,0,0,1,1.887-1.258,2.722,2.722,0,0,1,.85.133l.408-1.96h-2.339l.1-.427h2.329l.28-1.317h.452l-.29,1.317h1.459Zm-2.506,2.815a1.643,1.643,0,0,0-.816-.187,1.307,1.307,0,0,0-1.405.875c-.177.776.683.83.894.83a1.056,1.056,0,0,0,1.209-1Z" transform="translate(-822.638 -562.992)" fill="#0071ce"/>
    <path id="パス_16" data-name="パス 16" d="M1017.9,563.271a7.172,7.172,0,0,0,.821-1.946l.344.02a7.4,7.4,0,0,1-.875,2.083Zm3.494-5.346c-.329.472-1.376,1.862-1.906,2.427.717-.029,1.017-.059,1.209-.074a5.31,5.31,0,0,0-.108-.526l.334-.128a6.691,6.691,0,0,1,.221,1.228l-.359.147a3.619,3.619,0,0,0-.044-.452c-.162.029-.555.069-.737.084l-.757,3.277h-.383l.747-3.238c-.565.044-.87.044-1.12.054l.039-.354c.388,0,.467,0,.585,0,.349-.393.516-.59.639-.757a6.762,6.762,0,0,0-.8-.934l.275-.29c.088.074.118.1.2.177a15.193,15.193,0,0,0,.963-1.45l.3.147a18.226,18.226,0,0,1-1.071,1.523,5.147,5.147,0,0,1,.383.5c.295-.378.742-1.007,1.106-1.513Zm-1.327,5.174a9.966,9.966,0,0,0,.142-1.813l.344-.044a7.611,7.611,0,0,1-.1,1.818Zm2.575-2.27c-.413,1.725-.9,2.486-2.25,3.086l-.167-.364c1.356-.555,1.685-1.243,2.024-2.722Zm2.339.246h-.413l.177-.776h-2.973l-.182.776h-.423l.26-1.13h3.808Zm-.821-3.975-.167.727h1.916l-.084.354h-1.916l-.182.791h1.685l-.083.364h-3.7l.083-.364h1.621l.182-.791h-1.862l.083-.354h1.862l.167-.727Zm-.354,3.729-.555,2.4c-.044.187-.059.251.133.251h.457c.221,0,.334-.03.585-1.13l.369.162c-.26,1.056-.413,1.346-.88,1.346h-.649c-.56,0-.472-.383-.437-.54l.58-2.486Z" transform="translate(-972.148 -556.717)" fill="#0071ce"/>
    <path id="パス_17" data-name="パス 17" d="M1221,566.575a20.211,20.211,0,0,1-2.162.2,5.307,5.307,0,0,0,.541,1.405l-.447.295a5.787,5.787,0,0,1-.594-1.68c-.393.015-1.012.039-1.45.03l-1.985-.02.1-.437,1.975.039c.413.01.83,0,1.3-.02a6.645,6.645,0,0,1-.069-1.012c-.408.015-.708.025-1.135.025H1215.5l.1-.427,1.528,0c.5,0,1.022-.015,1.081-.015.02-.408.039-.614.074-.963h.487a8.677,8.677,0,0,0-.083.938c.044,0,1.007-.039,2.162-.2l-.069.452a20.7,20.7,0,0,1-2.1.172,7.291,7.291,0,0,0,.069,1.012,14.542,14.542,0,0,0,2.319-.246Zm-4.84,1.4a1.445,1.445,0,0,0-.58.727c-.206.894,1.258.968,2.462.968a14.961,14.961,0,0,0,1.538-.069l-.093.442c-.378.029-.663.054-1.469.054a4.921,4.921,0,0,1-2.319-.295.915.915,0,0,1-.594-1.042,2.1,2.1,0,0,1,.82-1.086Z" transform="translate(-1159.503 -563.278)" fill="#0071ce"/>
    <path id="パス_18" data-name="パス 18" d="M1367.9,555.884a17.539,17.539,0,0,0,2.3-4.068l-1.332.01.1-.427h1.4c.2-.516.285-.776.481-1.435l.477.059c-.206.614-.314.909-.5,1.376h.983c.865,0,1.435.192,1.1,1.656a8,8,0,0,1-.889,2.309,1.438,1.438,0,0,1-1.337.7,3.737,3.737,0,0,1-.933-.113l.074-.452a3.98,3.98,0,0,0,.9.128c.585,0,.884-.3,1.145-.86a8.718,8.718,0,0,0,.575-1.68c.167-.722.231-1.287-.585-1.278l-1.2,0a20.488,20.488,0,0,1-2.378,4.28Zm5.985-1.887a3.578,3.578,0,0,0-.541-2.742l.418-.275a4.248,4.248,0,0,1,.653,2.933Zm.644-4.172a5.65,5.65,0,0,1,.585,1.307l-.432.275a5.345,5.345,0,0,0-.55-1.336Zm1-.526a5.51,5.51,0,0,1,.6,1.3l-.432.275a5.129,5.129,0,0,0-.565-1.322Z" transform="translate(-1305.022 -549.3)" fill="#0071ce"/>
    <path id="パス_19" data-name="パス 19" d="M1549.233,568.115c1.115.015,2.486-.26,2.8-1.607a1.31,1.31,0,0,0-1.228-1.671c-1.307,2.737-2.879,3.366-3.661,3.366-.727,0-1.027-.555-.855-1.292a3.312,3.312,0,0,1,2.359-2.216c.015-.069.113-.531.2-.894l.044-.187h-1.651l.093-.413h1.651l.187-.8h.442l-.187.8h3.631l-.093.413h-3.631l-.216.939a4.977,4.977,0,0,1,1.219-.147c1.813,0,2.417.968,2.147,2.128-.413,1.784-2.241,2.019-3.243,2.024Zm-.673-2.992a2.77,2.77,0,0,0-1.843,1.774c-.079.334-.054.875.531.875a1.976,1.976,0,0,0,1.135-.4A7.449,7.449,0,0,1,1548.56,565.122Zm1.833-.324a4.646,4.646,0,0,0-1.371.172,7.5,7.5,0,0,0-.216,2.083A7.4,7.4,0,0,0,1550.392,564.8Z" transform="translate(-1474.675 -561.756)" fill="#0071ce"/>
    <path id="パス_20" data-name="パス 20" d="M1726.526,567.318c-.192.128-.241.157-.717.486-1.513,1.037-1.725,1.184-2.073,1.425a4.338,4.338,0,0,1,1.626-.324c1.538,0,1.73.963,1.543,1.784a3.019,3.019,0,0,1-3.051,2.157c-1.066,0-1.754-.472-1.587-1.189a1.392,1.392,0,0,1,1.4-.963c.442,0,1.376.162,1.391,1.558a2.177,2.177,0,0,0,1.4-1.558c.31-1.346-.845-1.405-1.273-1.405a6.449,6.449,0,0,0-3.8,1.7l-.182-.369c.393-.26,2.545-1.71,4.663-3.292-1.047.084-1.715.118-3.218.143l.1-.423c1.454-.015,2.319-.025,3.877-.142Zm-2.019,4.324a1.033,1.033,0,0,0-.973-.57.851.851,0,0,0-.88.575c-.118.5.511.835,1.307.835a2.6,2.6,0,0,0,.663-.083A1.285,1.285,0,0,0,1724.507,571.642Z" transform="translate(-1641.041 -566.035)" fill="#0071ce"/>
    <path id="パス_21" data-name="パス 21" d="M1878.325,649.242a1.4,1.4,0,0,1-1.287,1.052.8.8,0,0,1-.806-1.052,1.386,1.386,0,0,1,1.292-1.042A.8.8,0,0,1,1878.325,649.242Zm-1.764,0a.556.556,0,0,0,.555.722.966.966,0,0,0,.884-.722.554.554,0,0,0-.55-.717A.953.953,0,0,0,1876.561,649.242Z" transform="translate(-1788.427 -643.341)" fill="#0071ce"/>
  </g>
  <path id="パス_22" data-name="パス 22" d="M1653.519,33.8h-10.657s-.059,2.943-.059,4.294.089,3.636-.722,4.55a2.555,2.555,0,0,1-1.961.968l-.02,5.567a4.369,4.369,0,0,0,3.838-1.73,4.793,4.793,0,0,0,1.012-2.265c1.808,0,5.474-.01,5.474-.01a6.084,6.084,0,0,1-.516,2.349,4.456,4.456,0,0,1-4.226,2.211h-2.132V55.1c1.307,0,4.078.088,5.695-.55,2.565-1.012,4.265-3.577,4.265-9.37,0-2.648,0-2.648.01-11.38m-3.1,7.287h-4.835v-3.1h4.85Z" transform="translate(-1559.852 -32.139)" fill="#0071ce"/>
  <path id="パス_23" data-name="パス 23" d="M748.183,33.8v5.523c0,2.874-.383,5.341-2.191,7.085a5.791,5.791,0,0,1-4.142,1.381c0,1.975.147,4.545-1.12,6.068-1.317,1.577-2.678,1.744-5.1,1.744l0-5.778a2.863,2.863,0,0,0,2.521-.712c.467-.536.7-1.135.693-3.312V41.052l3.169-.01,0,1.749c1.268,0,2.378-.142,2.919-1.386A12.348,12.348,0,0,0,745.181,38H735l0-4.191Z" transform="translate(-699.037 -32.139)" fill="#0071ce"/>
  <path id="パス_24" data-name="パス 24" d="M1055.856,33.8c0,1.887.015,9.508.015,11.4a17.724,17.724,0,0,1-.821,5.081c-.314.914-1.759,3.764-4.52,4.486a22.089,22.089,0,0,1-5.356.329l0-5.375c1.838,0,4.216.1,5.547-.644a4.1,4.1,0,0,0,2.186-3.911H1044V41.082l9.006-.01V37.986l-9.006,0V33.8Z" transform="translate(-992.914 -32.139)" fill="#0071ce"/>
  <path id="パス_25" data-name="パス 25" d="M1318.761,33.7c0,2.894-.01,10.957-.01,12.048,0,3.155-.113,5.375-1.174,7.174-1.174,1.995-3.331,2.078-4.977,2.078l.015-5.862a2.432,2.432,0,0,0,2.187-1.371,8.594,8.594,0,0,0,.442-3.42c0-1.1-.015-8.52,0-10.653h3.518Z" transform="translate(-1248.353 -32.044)" fill="#0071ce"/>
  <path id="パス_26" data-name="パス 26" d="M1484.9,33.7c0,2.894.005,10.957.005,12.048,0,3.155.113,5.375,1.174,7.174,1.174,1.995,3.331,2.078,4.977,2.078l-.015-5.862a2.432,2.432,0,0,1-2.187-1.371,8.592,8.592,0,0,1-.442-3.42c0-1.1.015-8.52,0-10.653H1484.9Z" transform="translate(-1412.22 -32.044)" fill="#0071ce"/>
  <g id="グループ_5" data-name="グループ 5" transform="translate(0)">
    <path id="パス_27" data-name="パス 27" d="M33.505,9.955a5.431,5.431,0,0,1-1.725-.4c-.732-.295-1.15-.86-2.1-1.11-1.258-.334-1.779.059-2.6-.118-.958-.2-1.459-.83-2.4-1.061-.855-.216-1.784.187-2.781-.069-1.017-.26-1.671-1.1-2.688-1.327-.7-.157-1.744.128-2.658-.069s-1.268-.83-2.167-1.017c-1.027-.216-1.887.123-2.835-.167C10.436,4.28,10.205,3.71,9.3,3.41c-.993-.329-1.789.093-3.12-.177C5.3,3.056,4.516,2.432,3.145,2a6.292,6.292,0,0,0-2-.3h0V1.631a.851.851,0,1,0-.516.02L0,22.917H1.68l-.118-4.633a17.923,17.923,0,0,0,2-.26c.7-.221,1.6-.958,2.57-1.219.816-.221,2.152.113,3.066-.123.8-.206,1.081-.747,1.975-1.027.609-.187,1.725-.084,2.535-.26.732-.162,1.278-.722,2.137-.948.953-.251,1.631.044,2.383-.162.614-.167,1.076-.649,1.73-.8.693-.162,1.617.069,2.481-.167.555-.152,1.223-.8,1.936-.978.609-.157,1.749.079,2.329-.084.639-.177,1.145-.708,1.808-.884a12.537,12.537,0,0,1,2.049-.1,3.371,3.371,0,0,0,1.238-.555,6.186,6.186,0,0,1,1.715-.658C33.687,10.033,33.677,9.955,33.505,9.955ZM1.725,18.092a.47.47,0,0,1-.167.1L1.14,1.764a.3.3,0,0,1,.088.025c.712.324,2.349,3.842,2.349,8.137C3.577,13.306,2.648,17.222,1.725,18.092ZM12.4,12.952,10.255,11.39,8.107,12.952l.821-2.526L6.781,8.864H9.434l.821-2.526.821,2.526h2.653l-2.147,1.563Z" transform="translate(0)" fill="#002f87"/>
    <path id="パス_28" data-name="パス 28" d="M501.98,279.449a1.941,1.941,0,1,0,1.941,1.941,1.942,1.942,0,0,0-1.941-1.941m2.3,1.941a2.29,2.29,0,1,1-2.29-2.29,2.289,2.289,0,0,1,2.29,2.29" transform="translate(-475.147 -265.386)" fill="#002f87"/>
    <path id="パス_29" data-name="パス 29" d="M527.212,300.2a.474.474,0,0,0,.192-.074.412.412,0,0,0,.133-.143.468.468,0,0,0,.049-.236.473.473,0,0,0-.113-.324.454.454,0,0,0-.359-.128h-.865v.919h.732a.9.9,0,0,0,.231-.015m-.074-1.194a.873.873,0,0,1,.59.182.629.629,0,0,1,.211.506.779.779,0,0,1-.108.418.547.547,0,0,1-.349.246v0a.5.5,0,0,1,.187.074.384.384,0,0,1,.113.123.585.585,0,0,1,.064.162,1.139,1.139,0,0,1,.029.187c0,.064.01.128.01.2s.01.133.02.2a1.091,1.091,0,0,0,.044.182.418.418,0,0,0,.083.152h-.393a.24.24,0,0,1-.049-.113.778.778,0,0,1-.015-.157c0-.059,0-.118,0-.187a1.264,1.264,0,0,0-.025-.2c-.01-.064-.02-.123-.034-.182a.48.48,0,0,0-.069-.152.33.33,0,0,0-.128-.1.5.5,0,0,0-.206-.039h-.86v1.125H525.9V299h1.238Z" transform="translate(-500.06 -284.308)" fill="#002f87"/>
  </g>
</svg>
