<svg xmlns="http://www.w3.org/2000/svg" viewBox="0 0 200 200"><defs><style>.cls-1{fill:#1877f2;}.cls-2{fill:#fff;}</style></defs><g id="レイヤー_2" data-name="レイヤー 2"><g id="レイヤー_2-2" data-name="レイヤー 2"><path class="cls-1" d="M200,100A100,100,0,1,0,84.38,198.78V128.91H59V100h25.4V78c0-25.06,14.92-38.91,37.77-38.91a153.16,153.16,0,0,1,22.38,2V65.63H131.92c-12.42,0-16.3,7.7-16.3,15.61V100h27.74l-4.43,28.91H115.62v69.87A100,100,0,0,0,200,100Z"/><path class="cls-2" d="M138.93,128.91,143.36,100H115.62V81.24c0-7.91,3.88-15.61,16.3-15.61h12.61V41a153.16,153.16,0,0,0-22.38-2C99.3,39.06,84.38,52.91,84.38,78v22H59v28.91h25.4v69.87a100.6,100.6,0,0,0,31.24,0V128.91Z"/></g></g></svg>