<svg xmlns="http://www.w3.org/2000/svg" viewBox="0 0 200 200"><defs><style>.cls-1{fill:#d93177;}.cls-2{fill:#fff;}</style></defs><g id="レイヤー_2" data-name="レイヤー 2"><g id="master-artboard"><circle class="cls-1" cx="100" cy="100" r="100"/><path class="cls-2" d="M100,55.44c14.47,0,16.21,0,21.93.32A29.36,29.36,0,0,1,132,57.63a18,18,0,0,1,10.28,10.28A29.36,29.36,0,0,1,144.15,78c.27,5.72.32,7.46.32,21.93s0,16.2-.32,21.92a29.37,29.37,0,0,1-1.87,10.08A18,18,0,0,1,132,142.19a29.6,29.6,0,0,1-10.07,1.87c-5.72.27-7.43.32-21.93.32s-16.21,0-21.93-.32A29.6,29.6,0,0,1,68,142.19a18,18,0,0,1-10.28-10.28,29.37,29.37,0,0,1-1.87-10.08c-.27-5.72-.32-7.45-.32-21.92s0-16.21.32-21.93a29.36,29.36,0,0,1,1.87-10.07A18,18,0,0,1,68,57.63a29.36,29.36,0,0,1,10.07-1.87c5.72-.27,7.46-.32,21.93-.32m0-9.78c-14.72,0-16.57,0-22.36.32a40,40,0,0,0-13.17,2.53,27.6,27.6,0,0,0-16,16A40,40,0,0,0,46,77.64c-.25,5.79-.32,7.64-.32,22.36s0,16.57.32,22.36a40,40,0,0,0,2.53,13.17,27.6,27.6,0,0,0,16,16A40,40,0,0,0,77.64,154c5.79.25,7.64.32,22.36.32s16.57,0,22.36-.32a40,40,0,0,0,13.17-2.53,27.6,27.6,0,0,0,16-16A40,40,0,0,0,154,122.36c.25-5.79.32-7.64.32-22.36s0-16.57-.32-22.36a40,40,0,0,0-2.53-13.17,27.6,27.6,0,0,0-16-16A40,40,0,0,0,122.36,46C116.57,45.73,114.72,45.66,100,45.66Z"/><path class="cls-2" d="M100,72a27.86,27.86,0,1,0,27.85,27.86h0A27.85,27.85,0,0,0,100,72ZM100,118a18.08,18.08,0,1,1,18.07-18.07h0A18.07,18.07,0,0,1,100,118Z"/><path class="cls-2" d="M135.46,70.94A6.52,6.52,0,1,1,129,64.42,6.51,6.51,0,0,1,135.46,70.94Z"/></g></g></svg>