<svg xmlns="http://www.w3.org/2000/svg" viewBox="0 0 1920 695.75"><defs><style>.cls-1{fill:#0071ce;}.cls-2{fill:#002f87;}</style></defs><title>アセット 1</title><g id="レイヤー_2" data-name="レイヤー 2"><g id="レイヤー_1-2" data-name="レイヤー 1"><path class="cls-1" d="M205.57,573.26c-8.09,25.88-19.07,53.27-44.55,76.89-29.35,27.39-62,33.87-76.8,36.72l-1.37-8.42c71.41-14,97.89-55.68,110.28-96.32h-104l2.06-8.87Z"/><path class="cls-1" d="M261.29,606.36c-8.59,37.17-21.47,60.35-49,82.62l-5-6.47C238.59,659,247,629.84,252.26,607l8.93-38.68h8.88ZM284,675.59c39.74-7.23,55.14-34.16,66.35-61.85L358,617.2c-13.15,30.25-32.48,63.8-85.7,69.37l28.35-122.8h9.18Z"/><path class="cls-1" d="M509.62,621.26,507.36,631H390.6l2.26-9.78Z"/><path class="cls-1" d="M544.78,680.25c42.3-9.18,92-28.89,119.29-107.3l9.89,1.51c-24.08,63.2-61.18,100.68-125,113.76ZM558.43,625c.08-17.91-2.15-27.84-5.64-43.34l9-3a176.78,176.78,0,0,1,6.32,43.64Zm42.16-7.22A177,177,0,0,0,598.3,573l9-2.4a175.26,175.26,0,0,1,3.46,45Z"/><path class="cls-1" d="M739.64,566.33c-7,14.9-14.77,32.66-22.86,67.72-7.89,34.16-7.56,47.11-7.44,53.12l-10.18,1.05c.5-8.72,1.53-24.22,8.24-53.27,9.55-41.38,18.83-61.39,22.7-69.67Zm23.32,64c-5.83,6.32-11,14.15-12.69,21.67-3.75,16.25,14.64,17.46,31.8,17.46a305.45,305.45,0,0,0,32.73-1.66l-2.25,9.78c-4.43.31-16.84,1.21-29,1.21-18.51,0-47.58-1.21-41.71-26.64,1.7-7.37,5.84-15.5,13.38-24.68Zm69.18-51.92-2,8.73H761.34l2-8.73Z"/><path class="cls-1" d="M900,564.53c-6.24,15.34-15.16,37-22.94,70.72-7.16,31-7.09,44.4-7,50.42l-9.37,1.5c.3-17.6,3.83-35.51,8-53.42a476.69,476.69,0,0,1,21.87-70Zm98.15,26-2,8.73H966.53l-9.41,43.34C972,651.06,979.67,661,982.84,665.5l-8.3,8.58c-3.95-8.27-11.27-16.4-19.61-22l-1.6,6.92c-2.67,11.59-6.36,27.54-34.2,27.54-23.93,0-27.92-14-25.49-24.53,3.54-15.35,19.75-25.58,38.42-25.58a54.93,54.93,0,0,1,17.28,2.71l8.3-39.88H910.08l2-8.73h47.41l5.73-26.79h9.18l-5.88,26.79Zm-51,57.34a33.88,33.88,0,0,0-16.59-3.76c-12.79,0-25.71,5.11-28.62,17.75-3.65,15.8,13.86,16.86,18.22,16.86,19.87,0,22.44-11.14,24.56-20.32Z"/><path class="cls-1" d="M1017.86,682.66c7.88-12.64,12.57-25.13,16.66-39.58l7,.45c-4.62,18.06-12.44,34.32-17.78,42.44ZM1089,573.86c-6.74,9.63-28,37.92-38.79,49.36,14.59-.61,20.75-1.21,24.58-1.51-1.39-7.67-1.71-8.88-2.2-10.68l6.76-2.56c1.28,3.61,4.49,19.71,4.48,25l-7.32,3a71.85,71.85,0,0,0-.89-9.18c-3.3.6-11.31,1.36-15,1.66l-15.39,66.66h-7.82l15.22-65.91c-11.51.9-17.68.9-22.83,1l.77-7.22c7.94.15,9.48,0,11.89,0,7.1-8,10.45-12,13-15.35a134.31,134.31,0,0,0-16.24-19l5.56-5.87c1.76,1.5,2.41,2,4.13,3.61,8.56-11,16.47-24.38,19.61-29.49l6.23,3c-5.84,9.63-17.57,25.89-21.77,31a107.68,107.68,0,0,1,7.76,10.07c6-7.67,15.11-20.46,22.48-30.84ZM1062,679.2c2.31-15.2,3-23.48,2.94-36.87l7-.9a157,157,0,0,1-2.08,37Zm52.36-46.2c-8.4,35.06-18.3,50.56-45.8,62.75l-3.41-7.37c27.59-11.29,34.28-25.29,41.23-55.38Zm47.62,5h-8.43l3.65-15.81h-60.51L1093.05,638h-8.59l5.32-23h77.51Zm-16.71-80.82-3.41,14.75h39l-1.67,7.22h-39l-3.72,16.11h34.32l-1.7,7.37h-75.41l1.7-7.37h33l3.72-16.11h-37.92l1.66-7.22h37.93l3.4-14.75ZM1138.14,633l-11.26,48.75c-.87,3.77-1.18,5.12,2.73,5.12H1139c4.51,0,6.75-.6,11.93-23l7.52,3.31c-5.27,21.52-8.43,27.39-17.91,27.39h-13.25c-11.44,0-9.63-7.83-8.9-11L1130,633Z"/><path class="cls-1" d="M1339,616.44c-12.07,2.11-32,3.62-44,4.07a106.5,106.5,0,0,0,11,28.59l-9.06,6c-7.22-13.09-10-24.38-12.14-34.16-8,.3-20.64.75-29.48.6l-40.39-.45,2-8.88,40.17.75c8.39.15,16.89-.15,26.44-.44a136.87,136.87,0,0,1-1.41-20.63c-8.35.31-14.41.46-23.14.46h-31.9l2-8.73,31.12.15c10.08,0,20.84-.3,22-.3.4-8.28.77-12.49,1.5-19.57h9.94a186.41,186.41,0,0,0-1.7,19.12c.9,0,20.49-.76,44-4.07l-1.37,9.18a402.65,402.65,0,0,1-42.79,3.46,141.06,141.06,0,0,0,1.41,20.62c17.79-.75,34.54-2.26,47.2-5Zm-98.52,28.44c-6.2,4.67-10.72,9.94-11.83,14.76-4.21,18.21,25.55,19.71,50.08,19.71A309.55,309.55,0,0,0,1310,678l-1.93,9c-7.66.6-13.49,1.06-29.89,1.06-33.56,0-41.68-3.31-47.23-6-5.16-2.4-15-8.87-12.1-21.21,2.46-10.69,12.13-18.66,16.69-22.13Z"/><path class="cls-1" d="M1367.94,683.26a355.66,355.66,0,0,0,46.8-82.77l-27.12.15,2-8.73h28.45c4.09-10.53,5.76-15.8,9.75-29.19l9.66,1.2c-4.24,12.49-6.38,18.51-10.08,28h20c17.61,0,29.2,3.92,22.32,33.71-3.27,14.15-9.69,34.16-18.07,47-9,13.69-20.15,14.29-27.23,14.29a81.26,81.26,0,0,1-19-2.25l1.52-9.18a83.31,83.31,0,0,0,18.36,2.55c11.9,0,18-6.17,23.3-17.45a176.36,176.36,0,0,0,11.65-34.16c3.41-14.75,4.69-26.19-11.89-26l-24.43.15c-19.67,47.41-40.89,76.75-48.4,87.13Zm121.74-38.38c3.44-24.67-1.63-44.39-11-55.82l8.51-5.57c12.31,15.8,14.91,37.77,13.3,59.74ZM1502.8,560a114.45,114.45,0,0,1,11.92,26.64l-8.81,5.57c-3.59-12.49-6.86-19.87-11.17-27.24Zm20.38-10.68a112.37,112.37,0,0,1,12.25,26.48l-8.81,5.57c-3.46-11.74-6.73-19.11-11.54-26.94Z"/><path class="cls-1" d="M1607.23,678.75c22.66.3,50.59-5.27,56.91-32.66,5.63-24.38-13.48-32.2-25-34-26.56,55.68-58.56,68.47-74.51,68.47-14.75,0-20.88-11.28-17.4-26.34,4.69-20.31,22.59-36.56,48-45.14.31-1.35,2.34-10.84,4.05-18.21l.87-3.76h-33.56l2-8.43h33.55l3.76-16.25h9l-3.76,16.25h73.9l-1.94,8.43h-73.9l-4.41,19.11a103.64,103.64,0,0,1,24.78-3c36.87,0,49.17,19.71,43.72,43.35-8.37,36.26-45.6,41.07-66,41.23Zm-13.77-61c-21,8.13-34.24,21.82-37.54,36.11-1.56,6.78-1.08,17.77,10.81,17.77,2.71,0,10.69,0,23.1-8.13C1589.13,654.82,1588.67,642.48,1593.46,617.8Zm37.35-6.62a92.34,92.34,0,0,0-27.89,3.46c-5.34,25.73-4.7,37.32-4.38,42.44C1615.53,642.18,1626.35,620.06,1630.81,611.18Z"/><path class="cls-1" d="M1829.63,575.36c-3.9,2.56-5,3.16-14.64,9.94-30.75,21.06-35.06,24.07-42.23,29,6.77-2.56,17.79-6.62,33.14-6.62,31.31,0,35.22,19.56,31.36,36.26-6.84,29.65-36.34,43.94-62.07,43.94-21.68,0-35.7-9.63-32.33-24.22,2.77-12,15.49-19.56,28.44-19.56,9,0,28,3.31,28.34,31.75,6.35-2.71,23.48-9.78,28.55-31.75,6.33-27.4-17.18-28.6-25.91-28.6-28.9,0-53.75,16.41-77.34,34.47l-3.67-7.53c8-5.27,51.82-34.76,94.92-67-21.29,1.66-34.87,2.41-65.52,2.86l2-8.58c29.57-.3,47.22-.45,78.93-2.86Zm-41.1,88c-4.11-8.28-11.92-11.59-19.75-11.59-10.09,0-16.56,5.87-17.91,11.74-2.37,10.23,10.37,17,26.63,17A55.34,55.34,0,0,0,1791,678.9C1791.26,672.43,1791.11,668.51,1788.53,663.4Z"/><path class="cls-1" d="M1919.43,669.42c-2.74,11.89-14.57,21.37-26.15,21.37-11.89,0-19.18-9.48-16.44-21.37s14.53-21.22,26.27-21.22S1922.17,657.53,1919.43,669.42Zm-36,0c-1.87,8.12,3.22,14.74,11.35,14.74,8,0,16.12-6.62,18-14.74s-3.26-14.6-11.23-14.6C1893.45,654.82,1885.34,661.29,1883.46,669.42Z"/><path class="cls-1" d="M1913.25,33.75H1696.33s-1.15,59.87-1.15,87.4,1.75,74-14.74,92.6c-8.78,9.89-21.15,19.74-39.88,19.74l-.44,113.34c34.47,0,61.33-11.14,78.13-35.22,13.51-19.34,17.23-27.78,20.58-46.06,36.79,0,111.35-.23,111.35-.23.31,12.57-3.93,34.12-10.47,47.79-11.55,24.1-41.14,45-86,45h-43.43l0,109.24c26.57,0,83,1.77,115.91-11.21,52.19-20.57,86.82-72.77,86.82-190.69,0-54,0-54,.27-231.7m-63.1,148.39H1751.7l0-63h98.66Z"/><path class="cls-1" d="M1003.28,33.75s0,66.15,0,112.42c0,58.55-7.79,108.73-44.6,144.2-33.9,32.66-84.31,28.1-84.31,28.1,0,40.15,3,92.51-22.75,123.46-26.77,32.12-54.53,35.46-103.72,35.46l-.06-117.64c21.86,2.21,40.55-2.13,51.25-14.52,9.47-10.94,14.34-23.05,14-67.44V181.23l64.54-.17.1,35.56c25.78,0,48.42-2.87,59.41-28.22,6.52-15.05,5-54.92,5-69.25H735l.14-85.35Z"/><path class="cls-1" d="M1285.31,33.81c0,38.41.27,193.5.27,232.13,0,23.93-4.67,68.58-16.71,103.38-6.45,18.63-35.8,76.62-92,91.34-32.1,8.4-64.9,6.41-109,6.69L1068,358c37.37,0,85.78,2.13,112.89-13.05s44.51-39.15,44.51-79.63l-181.44,0V182.13l183.26-.19V119L1043.94,119v-85Z"/><path class="cls-1" d="M1438,33.75c0,58.88-.15,223-.15,245.24,0,64.23-2.32,109.4-23.9,146-23.91,40.57-67.76,42.32-101.27,42.32l.31-119.27c20.08,0,36.12-11.55,44.5-27.94,8.86-17.35,9-47.25,9-69.64s-.28-173.43,0-216.75Z"/><path class="cls-1" d="M1484.85,33.75c0,58.88.14,223,.14,245.24,0,64.23,2.33,109.4,23.91,146,23.9,40.57,67.77,42.32,101.28,42.32l-.31-119.27c-20.07,0-36.13-11.55-44.51-27.94-8.86-17.35-9-47.25-9-69.64s.28-173.43,0-216.75Z"/><path class="cls-2" d="M681.85,202.63c-7.21,0-22.06-2.85-35.13-8.08-14.91-6-23.37-17.45-42.83-22.58-25.56-6.75-36.21,1.17-53-2.35-19.46-4.09-29.75-16.85-48.79-21.65-17.41-4.4-36.32,3.82-56.62-1.41-20.7-5.34-34-22.28-54.74-27-14.21-3.22-35.5,2.57-54.12-1.4s-25.8-16.86-44.07-20.71c-20.87-4.39-38.4,2.45-57.72-3.45-22.59-6.9-27.3-18.51-45.81-24.63-20.16-6.67-36.39,1.88-63.53-3.6-17.55-3.56-33.62-16.32-61.49-25-22.87-7.07-40.78-6.11-40.78-6.11h0l0-1.53a17.14,17.14,0,1,0-10.46.51L0,466.39H34.19l-2.4-94.25c14-2.95,26.55-.84,40.78-5.3s32.52-19.52,52.28-24.84c16.57-4.47,43.8,2.32,62.44-2.51,16.31-4.24,22-15.22,40.15-20.86,12.4-3.85,35.15-1.7,51.61-5.34,14.89-3.3,26-14.74,43.45-19.29,19.39-5.07,33.25.93,48.52-3.29,12.49-3.45,21.86-13.2,35.24-16.32,14.11-3.29,32.9,1.44,50.51-3.45,11.29-3.14,24.93-16.16,39.36-19.92,12.37-3.23,35.65,1.55,47.43-1.73,13-3.6,23.33-14.37,36.8-18,16.17-4.4,30.35-.11,41.73-2,9.25-1.57,12.64-4.24,25.25-11.3,13.18-7.36,29.7-12.92,34.9-13.41C685.62,204.2,685.39,202.63,681.85,202.63ZM35.14,368.19a10.33,10.33,0,0,1-3.39,2L23.24,35.94a7,7,0,0,1,1.78.51C39.52,43.08,72.78,114.61,72.78,202,72.78,270.84,53.85,350.52,35.14,368.19ZM252.43,263.56l-43.72-31.77L165,263.56l16.73-51.39L138,180.44l54,0L208.78,129l16.68,51.41h54l-43.71,31.76Z"/><path class="cls-2" d="M546.12,286.15a39.53,39.53,0,1,0,39.52,39.54,39.54,39.54,0,0,0-39.52-39.54m46.8,39.54a46.56,46.56,0,1,1-46.56-46.56,46.56,46.56,0,0,1,46.56,46.56"/><path class="cls-2" d="M552.57,323.51a10.69,10.69,0,0,0,3.93-1.46,8,8,0,0,0,2.7-2.92,10,10,0,0,0,1-4.77,9.66,9.66,0,0,0-2.25-6.6c-1.51-1.7-3.93-2.57-7.29-2.57H533v18.7h14.87a29.17,29.17,0,0,0,4.74-.38m-1.51-24.29c5.11,0,9.09,1.25,12,3.74s4.33,5.93,4.33,10.28a16.32,16.32,0,0,1-2.22,8.54,11.52,11.52,0,0,1-7.1,5V327a9.38,9.38,0,0,1,3.79,1.51,8.14,8.14,0,0,1,2.33,2.5,11.53,11.53,0,0,1,1.27,3.26,36.35,36.35,0,0,1,.65,3.76c.09,1.31.17,2.64.21,4a36.57,36.57,0,0,0,.38,4,26.88,26.88,0,0,0,.86,3.74,9.28,9.28,0,0,0,1.69,3.11h-8a4.69,4.69,0,0,1-1-2.26,24.1,24.1,0,0,1-.33-3.2c-.06-1.17-.1-2.43-.15-3.78a26.34,26.34,0,0,0-.45-4c-.2-1.3-.45-2.53-.75-3.71a8.83,8.83,0,0,0-1.43-3.08,7.06,7.06,0,0,0-2.55-2.11,9.43,9.43,0,0,0-4.21-.79H533V352.8h-7.14V299.22Z"/></g></g></svg>