<?xml version="1.0" encoding="utf-8"?>
<!-- Generator: Adobe Illustrator 25.1.0, SVG Export Plug-In . SVG Version: 6.00 Build 0)  -->
<svg version="1.1" id="レイヤー_1" xmlns="http://www.w3.org/2000/svg" xmlns:xlink="http://www.w3.org/1999/xlink" x="0px"
	 y="0px" viewBox="0 0 200 200" style="enable-background:new 0 0 200 200;" xml:space="preserve">
<style type="text/css">
	.st0{display:none;}
	.st1{display:inline;}
	.st2{fill:#1877F2;}
	.st3{fill:#FFFFFF;}
	.st4{fill:#1D9BF0;}
</style>
<g id="レイヤー_2_1_" class="st0">
	<g id="レイヤー_2-2" class="st1">
		<path class="st2" d="M200,100C200,44.8,155.2,0,100,0S0,44.8,0,100c0,49.2,35.8,91.1,84.4,98.8v-69.9H59V100h25.4V78
			c0-25.1,14.9-38.9,37.8-38.9c7.5,0.1,15,0.8,22.4,2v24.5h-12.6c-12.4,0-16.3,7.7-16.3,15.6V100h27.7l-4.4,28.9h-23.3v69.9
			C164.2,191.1,200,149.2,200,100z"/>
		<path class="st3" d="M138.9,128.9l4.4-28.9h-27.7V81.2c0-7.9,3.9-15.6,16.3-15.6h12.6V41c-7.4-1.2-14.9-1.9-22.4-2
			c-22.8,0.1-37.8,13.9-37.8,39v22H59v28.9h25.4v69.9c10.3,1.6,20.9,1.6,31.2,0v-69.9H138.9z"/>
	</g>
</g>
<g>
	<circle class="st4" cx="100" cy="100" r="100"/>
	<path class="st3" d="M161.1,61.7c-4.1,2.3-9.2,3.7-13.7,4.1c5-3.2,8.7-8.2,10.5-14.2c-4.6,2.7-9.6,5-15.6,6.4
		c-4.6-5-10.5-8.2-17.4-8.2c-13.3,0-24.3,11.5-24.3,26.1c0,1.8,0,4.1,0.5,6c-20.2-0.9-38-11.5-49.9-27c-2.3,3.7-3.2,8.2-3.2,13.3
		c0,9.2,4.1,17,10.5,21.5c-4.1,0-7.8-1.4-11-3.2v0.5c0,12.4,8.2,22.9,19.2,25.7c-1.8,0.5-4.1,0.9-6.4,0.9c-1.4,0-3.2,0-4.6-0.5
		c3.2,10.5,11.9,17.9,22.5,17.9c-8.2,6.9-18.8,11-29.8,11c-1.8,0-3.7,0-6-0.5c10.5,7.3,23.4,11.9,37.1,11.9
		c44.4,0,68.7-39.4,68.7-73.8c0-0.9,0-2.3,0-3.2C153.7,71.8,157.9,67.2,161.1,61.7z"/>
</g>
</svg>
